<?xml version="1.0" encoding="utf-8"?>
<!-- Generator: Adobe Illustrator 23.1.1, SVG Export Plug-In . SVG Version: 6.00 Build 0)  -->
<svg version="1.1" id="Calque_1" xmlns="http://www.w3.org/2000/svg" xmlns:xlink="http://www.w3.org/1999/xlink" x="0px" y="0px"
	 width="800px" height="400px" viewBox="0 0 800 400" style="enable-background:new 0 0 800 400;" xml:space="preserve">
<style type="text/css">
	.st0{opacity:0.92;enable-background:new    ;}
	.st1{fill:none;}
	.st2{fill:none;stroke:#FFFFFF;stroke-width:4;stroke-miterlimit:10;enable-background:new    ;}
</style>
<rect id="SEA" x="-1" y="-1" class="st0" width="802" height="402"/>
<line class="st1" x1="1" y1="0" x2="1" y2="400"/>
<line class="st2" x1="-73.9" y1="0" x2="875" y2="0"/>
<line class="st2" x1="-73.9" y1="26.7" x2="875" y2="26.7"/>
<line class="st2" x1="-73.9" y1="53.3" x2="875" y2="53.3"/>
<line class="st2" x1="-73.9" y1="80" x2="875" y2="80"/>
<line class="st2" x1="-73.9" y1="106.7" x2="875" y2="106.7"/>
<line class="st2" x1="-73.9" y1="133.3" x2="875" y2="133.3"/>
<line class="st2" x1="-73.9" y1="160" x2="875" y2="160"/>
<line class="st2" x1="-73.9" y1="213.3" x2="875" y2="213.3"/>
<line class="st2" x1="-73.9" y1="186.7" x2="875" y2="186.7"/>
<line class="st2" x1="-73.9" y1="240" x2="875" y2="240"/>
<line class="st2" x1="-73.9" y1="266.7" x2="875" y2="266.7"/>
<line class="st2" x1="-73.9" y1="293.3" x2="875" y2="293.3"/>
<line class="st2" x1="-73.9" y1="320" x2="875" y2="320"/>
<line class="st2" x1="-73.9" y1="373.3" x2="875" y2="373.3"/>
<line class="st2" x1="-73.9" y1="346.7" x2="875" y2="346.7"/>
<line class="st2" x1="-73.9" y1="400" x2="875" y2="400"/>
</svg>
