<?xml version="1.0" encoding="utf-8"?>
<!-- Generator: Adobe Illustrator 23.1.1, SVG Export Plug-In . SVG Version: 6.00 Build 0)  -->
<svg version="1.1" id="Calque_1" xmlns="http://www.w3.org/2000/svg" xmlns:xlink="http://www.w3.org/1999/xlink" x="0px" y="0px"
	 width="800px" height="400px" viewBox="0 0 800 400" style="enable-background:new 0 0 800 400;" xml:space="preserve">
<style type="text/css">
	.st0{opacity:0.2;enable-background:new    ;}
	.st1{fill:none;}
	.st2{opacity:0.5;fill:none;stroke:#FFFFFF;stroke-width:4;stroke-miterlimit:10;enable-background:new    ;}
</style>
<rect id="SEA" x="-1" y="-1" class="st0" width="802" height="402"/>
<line class="st1" x1="1" y1="0" x2="1" y2="400"/>
<line class="st2" x1="-73.9" y1="1.1" x2="875" y2="1.1"/>
<line class="st2" x1="-73.9" y1="43.1" x2="875" y2="43.1"/>
<line class="st2" x1="-73.9" y1="67.1" x2="875" y2="67.1"/>
<line class="st2" x1="-73.9" y1="85.1" x2="875" y2="85.1"/>
<line class="st2" x1="-73.9" y1="127.1" x2="875" y2="127.1"/>
<line class="st2" x1="-73.9" y1="169.1" x2="875" y2="169.1"/>
<line class="st2" x1="-73.9" y1="211.1" x2="875" y2="211.1"/>
<line class="st2" x1="-73.9" y1="253.1" x2="875" y2="253.1"/>
<line class="st2" x1="-73.9" y1="295.1" x2="875" y2="295.1"/>
<line class="st2" x1="-73.9" y1="337.1" x2="875" y2="337.1"/>
<line class="st2" x1="-73.9" y1="379.1" x2="875" y2="379.1"/>
<line class="st2" x1="-73.9" y1="400.1" x2="875" y2="400.1"/>
</svg>
