<?xml version="1.0" encoding="utf-8"?>
<!-- Generator: Adobe Illustrator 23.1.1, SVG Export Plug-In . SVG Version: 6.00 Build 0)  -->
<svg version="1.1" id="Calque_1" xmlns="http://www.w3.org/2000/svg" xmlns:xlink="http://www.w3.org/1999/xlink" x="0px" y="0px"
	 width="800px" height="400px" viewBox="0 0 800 400" style="enable-background:new 0 0 800 400;" xml:space="preserve">
<style type="text/css">
	.st0{opacity:0.92;enable-background:new    ;}
	.st1{fill:none;}
	.st2{fill:none;stroke:#FFFFFF;stroke-width:4;stroke-miterlimit:10;}
</style>
<rect id="SEA" x="-1" y="-3" class="st0" width="802" height="402"/>
<line class="st1" x1="1" y1="0" x2="1" y2="400"/>
<g>
	<path class="st2" d="M0,0c71.2-1.4,140.8-22.2,212.2-19.8C275.3-17.7,336.8-1.4,400,0c61.3,1.4,121,16.6,182.2,19.5
		C655.4,23,726.9,1.4,800,0"/>
	<path class="st2" d="M0,400c71.2-1.4,140.8-22.2,212.2-19.8c63.1,2.1,124.6,18.4,187.8,19.8c61.3,1.4,121,16.6,182.2,19.5
		C655.4,423,726.9,401.4,800,400"/>
	<path class="st2" d="M0,213.3c71.2-1.4,140.8-22.2,212.2-19.8c63.1,2.1,124.6,18.4,187.8,19.8c61.3,1.4,121,16.6,182.2,19.5
		c73.3,3.5,144.8-18.1,217.8-19.5"/>
	<path class="st2" d="M0,320c71.2-1.4,140.8-22.2,212.2-19.8c63.1,2.1,124.6,18.4,187.8,19.8c61.3,1.4,121,16.6,182.2,19.5
		C655.4,343,726.9,321.4,800,320"/>
	<path class="st2" d="M0,240c71.2-1.4,140.8-22.2,212.2-19.8c63.1,2.1,124.6,18.4,187.8,19.8c61.3,1.4,121,16.6,182.2,19.5
		C655.4,263,726.9,241.4,800,240"/>
	<path class="st2" d="M0,293.3c71.2-1.4,140.8-22.2,212.2-19.8c63.1,2.1,124.6,18.4,187.8,19.8c61.3,1.4,121,16.6,182.2,19.5
		c73.3,3.5,144.8-18.1,217.8-19.5"/>
	<path class="st2" d="M0,346.7c71.2-1.4,140.8-22.2,212.2-19.8c63.1,2.1,124.6,18.4,187.8,19.8c61.3,1.4,121,16.6,182.2,19.5
		c73.3,3.5,144.8-18.1,217.8-19.5"/>
	<path class="st2" d="M0,266.7c71.2-1.4,140.8-22.2,212.2-19.8c63.1,2.1,124.6,18.4,187.8,19.8c61.3,1.4,121,16.6,182.2,19.5
		c73.3,3.5,144.8-18.1,217.8-19.5"/>
	<path class="st2" d="M0,160c71.2-1.4,140.8-22.2,212.2-19.8c63.1,2.1,124.6,18.4,187.8,19.8c61.3,1.4,121,16.6,182.2,19.5
		C655.4,183,726.9,161.4,800,160"/>
	<path class="st2" d="M0,106.7c71.2-1.4,140.8-22.2,212.2-19.8c63.1,2.1,124.6,18.4,187.8,19.8c61.3,1.4,121,16.6,182.2,19.5
		c73.3,3.5,144.8-18.1,217.8-19.5"/>
	<path class="st2" d="M0,53.3c71.2-1.4,140.8-22.2,212.2-19.8c63.1,2.1,124.6,18.4,187.8,19.8c61.3,1.4,121,16.6,182.2,19.5
		c73.3,3.5,144.8-18.1,217.8-19.5"/>
	<path class="st2" d="M0,26.7C71.2,25.3,140.8,4.5,212.2,6.9C275.3,9,336.8,25.3,400,26.7c61.3,1.4,121,16.6,182.2,19.5
		c73.3,3.5,144.8-18.1,217.8-19.5"/>
	<path class="st2" d="M0,80c71.2-1.4,140.8-22.2,212.2-19.8C275.3,62.3,336.8,78.6,400,80c61.3,1.4,121,16.6,182.2,19.5
		C655.4,103,726.9,81.4,800,80"/>
	<path class="st2" d="M0,133.3c71.2-1.4,140.8-22.2,212.2-19.8c63.1,2.1,124.6,18.4,187.8,19.8c61.3,1.4,121,16.6,182.2,19.5
		c73.3,3.5,144.8-18.1,217.8-19.5"/>
	<path class="st2" d="M0,186.7c71.2-1.4,140.8-22.2,212.2-19.8c63.1,2.1,124.6,18.4,187.8,19.8c61.3,1.4,121,16.6,182.2,19.5
		c73.3,3.5,144.8-18.1,217.8-19.5"/>
	<path class="st2" d="M0,373.3c71.2-1.4,140.8-22.2,212.2-19.8c63.1,2.1,124.6,18.4,187.8,19.8c61.3,1.4,121,16.6,182.2,19.5
		c73.3,3.5,144.8-18.1,217.8-19.5"/>
</g>
</svg>
