<?xml version="1.0" encoding="utf-8"?>
<!-- Generator: Adobe Illustrator 23.1.1, SVG Export Plug-In . SVG Version: 6.00 Build 0)  -->
<svg version="1.1" id="Calque_1" xmlns="http://www.w3.org/2000/svg" xmlns:xlink="http://www.w3.org/1999/xlink" x="0px" y="0px"
	 width="800px" height="400px" viewBox="0 0 800 400" style="enable-background:new 0 0 800 400;" xml:space="preserve">
<style type="text/css">
	.st0{opacity:0.92;enable-background:new    ;}
	.st1{fill:none;}
	.st2{fill:none;stroke:#FFFFFF;stroke-width:4;stroke-miterlimit:10;enable-background:new    ;}
</style>
<rect id="SEA" x="-1" y="-1" class="st0" width="802" height="402"/>
<line class="st1" x1="1" y1="0" x2="1" y2="400"/>
<line class="st2" x1="-73.9" y1="0" x2="875" y2="0"/>
<line class="st2" x1="-73.9" y1="28.6" x2="875" y2="28.6"/>
<line class="st2" x1="-73.9" y1="57.1" x2="875" y2="57.1"/>
<line class="st2" x1="-73.9" y1="85.7" x2="875" y2="85.7"/>
<line class="st2" x1="-73.9" y1="114.3" x2="875" y2="114.3"/>
<line class="st2" x1="-73.9" y1="142.9" x2="875" y2="142.9"/>
<line class="st2" x1="-73.9" y1="171.4" x2="875" y2="171.4"/>
<line class="st2" x1="-73.9" y1="200" x2="875" y2="200"/>
<line class="st2" x1="-73.9" y1="228.6" x2="875" y2="228.6"/>
<line class="st2" x1="-73.9" y1="257.1" x2="875" y2="257.1"/>
<line class="st2" x1="-73.9" y1="285.7" x2="875" y2="285.7"/>
<line class="st2" x1="-73.9" y1="314.3" x2="875" y2="314.3"/>
<line class="st2" x1="-73.9" y1="371.4" x2="875" y2="371.4"/>
<line class="st2" x1="-73.9" y1="342.9" x2="875" y2="342.9"/>
<line class="st2" x1="-73.9" y1="400" x2="875" y2="400"/>
</svg>
