<?xml version="1.0" encoding="utf-8"?>
<!-- Generator: Adobe Illustrator 23.1.1, SVG Export Plug-In . SVG Version: 6.00 Build 0)  -->
<svg version="1.1" id="Calque_1" xmlns="http://www.w3.org/2000/svg" xmlns:xlink="http://www.w3.org/1999/xlink" x="0px" y="0px"
	 width="800px" height="400px" viewBox="0 0 800 400" style="enable-background:new 0 0 800 400;" xml:space="preserve">
<style type="text/css">
	.st0{opacity:0.92;enable-background:new    ;}
	.st1{fill:none;}
	.st2{fill:none;stroke:#FFFFFF;stroke-width:4;stroke-miterlimit:10;enable-background:new    ;}
</style>
<rect id="SEA" x="-1" y="-3" class="st0" width="802" height="402"/>
<line class="st1" x1="1" y1="0" x2="1" y2="400"/>
<g>
	<path class="st2" d="M0,0c70.8-0.6,141.3-8.9,212.2-7.9C274.9-7.1,337.3-0.5,400,0c60.8,0.5,121.4,5,182.2,5.9
		C654.9,6.9,727.4,0.4,800,0"/>
	<path class="st2" d="M0,26.7c70.8-0.6,141.3-8.9,212.2-7.9c62.7,0.8,125.1,7.4,187.8,7.9c60.8,0.5,121.4,5,182.2,5.9
		c72.7,1,145.2-5.4,217.8-5.9"/>
	<path class="st2" d="M0,53.3c70.8-0.6,141.3-8.9,212.2-7.9c62.7,0.8,125.1,7.4,187.8,7.9c60.8,0.5,121.4,5,182.2,5.9
		c72.7,1,145.2-5.4,217.8-5.9"/>
	<path class="st2" d="M0,80c70.8-0.6,141.3-8.9,212.2-7.9c62.7,0.8,125.1,7.4,187.8,7.9c60.8,0.5,121.4,5,182.2,5.9
		c72.7,1,145.2-5.4,217.8-5.9"/>
	<path class="st2" d="M0,106.7c70.8-0.6,141.3-8.9,212.2-7.9c62.7,0.8,125.1,7.4,187.8,7.9c60.8,0.5,121.4,5,182.2,5.9
		c72.7,1,145.2-5.4,217.8-5.9"/>
	<path class="st2" d="M0,133.3c70.8-0.6,141.3-8.9,212.2-7.9c62.7,0.8,125.1,7.4,187.8,7.9c60.8,0.5,121.4,5,182.2,5.9
		c72.7,1,145.2-5.4,217.8-5.9"/>
	<path class="st2" d="M0,160c70.8-0.6,141.3-8.9,212.2-7.9c62.7,0.8,125.1,7.4,187.8,7.9c60.8,0.5,121.4,5,182.2,5.9
		c72.7,1,145.2-5.4,217.8-5.9"/>
	<path class="st2" d="M0,213.3c70.8-0.6,141.3-8.9,212.2-7.9c62.7,0.8,125.1,7.4,187.8,7.9c60.8,0.5,121.4,5,182.2,5.9
		c72.7,1,145.2-5.4,217.8-5.9"/>
	<path class="st2" d="M0,186.7c70.8-0.6,141.3-8.9,212.2-7.9c62.7,0.8,125.1,7.4,187.8,7.9c60.8,0.5,121.4,5,182.2,5.9
		c72.7,1,145.2-5.4,217.8-5.9"/>
	<path class="st2" d="M0,240c70.8-0.6,141.3-8.9,212.2-7.9c62.7,0.8,125.1,7.4,187.8,7.9c60.8,0.5,121.4,5,182.2,5.9
		c72.7,1,145.2-5.4,217.8-5.9"/>
	<path class="st2" d="M0,266.7c70.8-0.6,141.3-8.9,212.2-7.9c62.7,0.8,125.1,7.4,187.8,7.9c60.8,0.5,121.4,5,182.2,5.9
		c72.7,1,145.2-5.4,217.8-5.9"/>
	<path class="st2" d="M0,293.3c70.8-0.6,141.3-8.9,212.2-7.9c62.7,0.8,125.1,7.4,187.8,7.9c60.8,0.5,121.4,5,182.2,5.9
		c72.7,1,145.2-5.4,217.8-5.9"/>
	<path class="st2" d="M0,320c70.8-0.6,141.3-8.9,212.2-7.9c62.7,0.8,125.1,7.4,187.8,7.9c60.8,0.5,121.4,5,182.2,5.9
		c72.7,1,145.2-5.4,217.8-5.9"/>
	<path class="st2" d="M0,373.3c70.8-0.6,141.3-8.9,212.2-7.9c62.7,0.8,125.1,7.4,187.8,7.9c60.8,0.5,121.4,5,182.2,5.9
		c72.7,1,145.2-5.4,217.8-5.9"/>
	<path class="st2" d="M0,346.7c70.8-0.6,141.3-8.9,212.2-7.9c62.7,0.8,125.1,7.4,187.8,7.9c60.8,0.5,121.4,5,182.2,5.9
		c72.7,1,145.2-5.4,217.8-5.9"/>
	<path class="st2" d="M0,400c70.8-0.6,141.3-8.9,212.2-7.9c62.7,0.8,125.1,7.4,187.8,7.9c60.8,0.5,121.4,5,182.2,5.9
		c72.7,1,145.2-5.4,217.8-5.9"/>
</g>
</svg>
